HIERARCHY
ROOT hips
{
	OFFSET -0.003675 0.299928 -0.021708
	CHANNELS 6 Xposition Yposition Zposition Xrotation Yrotation Zrotation
	JOINT LowerBack
	{
		OFFSET 0.000919 0.177588 0.009275
		CHANNELS 3 Xrotation Yrotation Zrotation
		JOINT spine
		{
			OFFSET 0.000919 0.177588 0.009275
			CHANNELS 3 Xrotation Yrotation Zrotation
			JOINT chest
			{
				OFFSET 0.000456 0.100015 0.004638
				CHANNELS 3 Xrotation Yrotation Zrotation
				JOINT neck
				{
					OFFSET 0.000456 0.100015 0.004638
					CHANNELS 3 Xrotation Yrotation Zrotation
					JOINT head
					{
						OFFSET 0.000924 0.155147 0.009274
						CHANNELS 6 Xposition Yposition Zposition Xrotation Yrotation Zrotation
						End Site
						{
							OFFSET 0.000000 0.153400 0.000000
						}
					}
				}
				JOINT shoulder.L
				{
					OFFSET 0.019937 0.078966 0.057518
					CHANNELS 6 Xposition Yposition Zposition Yrotation Xrotation Zrotation
					JOINT upper_arm.L
					{
						OFFSET 0.177024 -0.020465 -0.095062
						CHANNELS 6 Xposition Yposition Zposition Xrotation Yrotation Zrotation
						JOINT forearm.L
						{
							OFFSET 0.247100 -0.135500 -0.061800
							CHANNELS 3 Xrotation Yrotation Zrotation
							JOINT hand.L
							{
								OFFSET 0.217000 -0.143000 0.039300
								CHANNELS 3 Xrotation Yrotation Zrotation
								JOINT palm.01.L
								{
									OFFSET 0.021770 -0.038291 0.012954
									CHANNELS 6 Xposition Yposition Zposition Yrotation Xrotation Zrotation
									JOINT f_index.01.L
									{
										OFFSET 0.053215 -0.044137 0.008236
										CHANNELS 3 Xrotation Yrotation Zrotation
										JOINT f_index.02.L
										{
											OFFSET 0.036108 -0.024723 -0.010656
											CHANNELS 3 Xrotation Yrotation Zrotation
											JOINT f_index.03.L
											{
												OFFSET 0.021342 -0.014948 -0.010846
												CHANNELS 3 Xrotation Yrotation Zrotation
												End Site
												{
													OFFSET 0.015600 -0.009860 -0.013421
												}
											}
										}
									}
									JOINT thumb.01.L
									{
										OFFSET -0.009090 -0.002348 -0.024223
										CHANNELS 6 Xposition Yposition Zposition Xrotation Yrotation Zrotation
										JOINT thumb.02.L
										{
											OFFSET 0.019713 -0.035076 -0.011120
											CHANNELS 3 Xrotation Yrotation Zrotation
											JOINT thumb.03.L
											{
												OFFSET 0.024877 -0.021748 -0.005176
												CHANNELS 3 Xrotation Yrotation Zrotation
												End Site
												{
													OFFSET 0.016125 -0.013029 -0.001569
												}
											}
										}
									}
								}
								JOINT palm.02.L
								{
									OFFSET 0.032823 -0.025104 0.012281
									CHANNELS 6 Xposition Yposition Zposition Yrotation Xrotation Zrotation
									JOINT f_middle.01.L
									{
										OFFSET 0.055723 -0.038469 0.008037
										CHANNELS 3 Xrotation Yrotation Zrotation
										JOINT f_middle.02.L
										{
											OFFSET 0.038167 -0.027473 -0.015582
											CHANNELS 3 Xrotation Yrotation Zrotation
											JOINT f_middle.03.L
											{
												OFFSET 0.021707 -0.016587 -0.017037
												CHANNELS 3 Xrotation Yrotation Zrotation
												End Site
												{
													OFFSET 0.014112 -0.010584 -0.014294
												}
											}
										}
									}
								}
								JOINT palm.03.L
								{
									OFFSET 0.039230 -0.011402 0.008390
									CHANNELS 6 Xposition Yposition Zposition Yrotation Xrotation Zrotation
									JOINT f_ring.01.L
									{
										OFFSET 0.061796 -0.031470 0.007910
										CHANNELS 3 Xrotation Yrotation Zrotation
										JOINT f_ring.02.L
										{
											OFFSET 0.033092 -0.023401 -0.019127
											CHANNELS 3 Xrotation Yrotation Zrotation
											JOINT f_ring.03.L
											{
												OFFSET 0.021392 -0.015362 -0.017824
												CHANNELS 3 Xrotation Yrotation Zrotation
												End Site
												{
													OFFSET 0.008670 -0.007297 -0.014686
												}
											}
										}
									}
								}
								JOINT palm.04.L
								{
									OFFSET 0.043417 0.002450 0.002889
									CHANNELS 6 Xposition Yposition Zposition Yrotation Xrotation Zrotation
									JOINT f_pinky.01.L
									{
										OFFSET 0.069986 -0.026156 0.003627
										CHANNELS 3 Xrotation Yrotation Zrotation
										JOINT f_pinky.02.L
										{
											OFFSET 0.018520 -0.012813 -0.016429
											CHANNELS 3 Xrotation Yrotation Zrotation
											JOINT f_pinky.03.L
											{
												OFFSET 0.013822 -0.009796 -0.014947
												CHANNELS 3 Xrotation Yrotation Zrotation
												End Site
												{
													OFFSET 0.007238 -0.006103 -0.011657
												}
											}
										}
									}
								}
							}
						}
					}
				}
				JOINT shoulder.R
				{
					OFFSET -0.016662 0.078957 0.057696
					CHANNELS 6 Xposition Yposition Zposition Yrotation Xrotation Zrotation
					JOINT upper_arm.R
					{
						OFFSET -0.176972 -0.020537 -0.095144
						CHANNELS 6 Xposition Yposition Zposition Xrotation Yrotation Zrotation
						JOINT forearm.R
						{
							OFFSET -0.247100 -0.135500 -0.061800
							CHANNELS 3 Xrotation Yrotation Zrotation
							JOINT hand.R
							{
								OFFSET -0.217000 -0.143000 0.039300
								CHANNELS 3 Xrotation Yrotation Zrotation
								JOINT palm.01.R
								{
									OFFSET -0.021773 -0.038278 0.012988
									CHANNELS 6 Xposition Yposition Zposition Yrotation Xrotation Zrotation
									JOINT f_index.01.R
									{
										OFFSET -0.053212 -0.044139 0.008249
										CHANNELS 3 Xrotation Yrotation Zrotation
										JOINT f_index.02.R
										{
											OFFSET -0.036049 -0.024835 -0.010634
											CHANNELS 3 Xrotation Yrotation Zrotation
											JOINT f_index.03.R
											{
												OFFSET -0.021371 -0.014881 -0.010866
												CHANNELS 3 Xrotation Yrotation Zrotation
												End Site
												{
													OFFSET -0.015584 -0.009883 -0.013422
												}
											}
										}
									}
									JOINT thumb.01.R
									{
										OFFSET 0.009113 -0.002381 -0.024211
										CHANNELS 6 Xposition Yposition Zposition Xrotation Yrotation Zrotation
										JOINT thumb.02.R
										{
											OFFSET -0.019694 -0.035097 -0.011088
											CHANNELS 3 Xrotation Yrotation Zrotation
											JOINT thumb.03.R
											{
												OFFSET -0.024867 -0.021762 -0.005168
												CHANNELS 3 Xrotation Yrotation Zrotation
												End Site
												{
													OFFSET -0.016120 -0.013036 -0.001565
												}
											}
										}
									}
								}
								JOINT palm.02.R
								{
									OFFSET -0.032828 -0.025095 0.012286
									CHANNELS 6 Xposition Yposition Zposition Yrotation Xrotation Zrotation
									JOINT f_middle.01.R
									{
										OFFSET -0.055721 -0.038472 0.008040
										CHANNELS 3 Xrotation Yrotation Zrotation
										JOINT f_middle.02.R
										{
											OFFSET -0.038101 -0.027593 -0.015557
											CHANNELS 3 Xrotation Yrotation Zrotation
											JOINT f_middle.03.R
											{
												OFFSET -0.021730 -0.016530 -0.017054
												CHANNELS 3 Xrotation Yrotation Zrotation
												End Site
												{
													OFFSET -0.014096 -0.010608 -0.014293
												}
											}
										}
									}
								}
								JOINT palm.03.R
								{
									OFFSET -0.039192 -0.011488 0.008390
									CHANNELS 6 Xposition Yposition Zposition Yrotation Xrotation Zrotation
									JOINT f_ring.01.R
									{
										OFFSET -0.061839 -0.031387 0.007876
										CHANNELS 3 Xrotation Yrotation Zrotation
										JOINT f_ring.02.R
										{
											OFFSET -0.033068 -0.023437 -0.019125
											CHANNELS 3 Xrotation Yrotation Zrotation
											JOINT f_ring.03.R
											{
												OFFSET -0.021371 -0.015393 -0.017822
												CHANNELS 3 Xrotation Yrotation Zrotation
												End Site
												{
													OFFSET -0.008654 -0.007321 -0.014684
												}
											}
										}
									}
								}
								JOINT palm.04.R
								{
									OFFSET -0.043421 0.002443 0.002845
									CHANNELS 6 Xposition Yposition Zposition Yrotation Xrotation Zrotation
									JOINT f_pinky.01.R
									{
										OFFSET -0.069983 -0.026169 0.003599
										CHANNELS 3 Xrotation Yrotation Zrotation
										JOINT f_pinky.02.R
										{
											OFFSET -0.018501 -0.012842 -0.016428
											CHANNELS 3 Xrotation Yrotation Zrotation
											JOINT f_pinky.03.R
											{
												OFFSET -0.013806 -0.009821 -0.014946
												CHANNELS 3 Xrotation Yrotation Zrotation
												End Site
												{
													OFFSET -0.007226 -0.006121 -0.011655
												}
											}
										}
									}
								}
							}
						}
					}
				}
			}
		}
	}
	JOINT pelvis.L
	{
		OFFSET 0.000000 0.000000 0.000000
		CHANNELS 6 Xposition Yposition Zposition Xrotation Yrotation Zrotation
		JOINT thigh.L
		{
			OFFSET 0.101675 0.001054 -0.000000
			CHANNELS 3 Xrotation Yrotation Zrotation
			JOINT shin.L
			{
				OFFSET 0.000000 -0.534800 0.041000
				CHANNELS 3 Xrotation Yrotation Zrotation
				JOINT foot.L
				{
					OFFSET 0.000000 -0.452000 -0.044800
					CHANNELS 3 Xrotation Yrotation Zrotation
					JOINT toe.L
					{
						OFFSET -0.000000 -0.068500 0.109600
						CHANNELS 3 Xrotation Yrotation Zrotation
						End Site
						{
							OFFSET -0.000000 0.000000 0.067200
						}
					}
				}
				JOINT heel.L
				{
					OFFSET 0.000000 -0.452000 -0.044800
					CHANNELS 3 Xrotation Yrotation Zrotation
					JOINT heel.02.L
					{
						OFFSET -0.038000 -0.085200 0.016200
						CHANNELS 6 Xposition Yposition Zposition Xrotation Yrotation Zrotation
						End Site
						{
							OFFSET 0.080000 -0.000000 0.000000
						}
					}
				}
			}
		}
	}
	JOINT pelvis.R
	{
		OFFSET 0.000000 0.000000 0.000000
		CHANNELS 6 Xposition Yposition Zposition Xrotation Yrotation Zrotation
		JOINT thigh.R
		{
			OFFSET -0.094325 0.001054 0.000000
			CHANNELS 3 Xrotation Yrotation Zrotation
			JOINT shin.R
			{
				OFFSET 0.000000 -0.534800 0.041000
				CHANNELS 3 Xrotation Yrotation Zrotation
				JOINT foot.R
				{
					OFFSET 0.000000 -0.452000 -0.044800
					CHANNELS 3 Xrotation Yrotation Zrotation
					JOINT toe.R
					{
						OFFSET -0.000000 -0.068500 0.109600
						CHANNELS 3 Xrotation Yrotation Zrotation
						End Site
						{
							OFFSET -0.000000 0.000000 0.067200
						}
					}
				}
				JOINT heel.R
				{
					OFFSET 0.000000 -0.452000 -0.044800
					CHANNELS 3 Xrotation Yrotation Zrotation
					JOINT heel.02.R
					{
						OFFSET 0.038000 -0.085200 0.016200
						CHANNELS 6 Xposition Yposition Zposition Xrotation Yrotation Zrotation
						End Site
						{
							OFFSET -0.080000 0.000000 -0.000000
						}
					}
				}
			}
		}
	}
}
MOTION
Frames: 4
Frame Time: 0.041667
-0.029497 0.216237 -0.034156 -44.494540 44.868670 76.948850 0.000003 0.000001 -0.000002 -0.000001 -0.000000 0.000000 0.000002 0.000001 -0.000002 -0.000000 0.000000 -0.000003 0.000924 0.155147 0.009274 -12.788988 0.021139 -26.164120 0.019937 0.078966 0.057518 15.139251 -0.575503 22.332967 0.177024 -0.020465 -0.095062 -27.044339 10.442274 -52.046653 -217.553915 181.197528 113.534034 -0.000001 -0.000000 0.000001 0.021770 -0.038291 0.012954 -0.000000 0.000001 0.000001 -0.000000 -0.000000 0.000003 0.000002 -0.000000 0.000003 0.000000 0.000004 0.000002 -0.009090 -0.002348 -0.024223 0.000001 -0.000001 0.000002 0.000001 0.000003 0.000005 0.000000 -0.000002 0.000003 0.032823 -0.025104 0.012281 -0.000002 0.000000 0.000002 0.000000 0.000000 -0.000002 -0.000003 -0.000001 -0.000000 -0.000000 -0.000006 0.000004 0.039230 -0.011402 0.008390 -0.000003 -0.000000 0.000004 -0.000000 0.000000 0.000001 0.000001 0.000003 -0.000002 0.000000 0.000000 0.000002 0.043417 0.002450 0.002889 -0.000001 0.000001 -0.000000 -0.000003 -0.000004 0.000003 0.000000 0.000005 -0.000005 0.000002 0.000002 -0.000003 -0.016662 0.078956 0.057696 24.768525 -5.648136 -23.106308 -0.176972 -0.020537 -0.095144 -31.351702 -22.548903 77.063331 -9.912995 7.224183 58.639162 0.000000 0.000002 0.000002 -0.021773 -0.038278 0.012988 0.000000 -0.000002 -0.000003 -0.000002 0.000001 -0.000001 0.000001 -0.000000 -0.000004 -0.000002 0.000000 0.000004 0.009114 -0.002381 -0.024211 0.000002 -0.000005 -0.000002 0.000000 0.000000 -0.000001 -0.000002 -0.000000 0.000001 -0.032828 -0.025095 0.012286 0.000003 0.000001 -0.000001 -0.000000 0.000003 0.000002 0.000003 0.000000 -0.000002 -0.000002 0.000002 -0.000007 -0.039192 -0.011488 0.008390 0.000002 -0.000001 0.000001 -0.000002 0.000003 -0.000003 -0.000000 -0.000003 0.000003 0.000002 -0.000000 0.000002 -0.043421 0.002443 0.002845 0.000000 0.000000 -0.000001 -0.000008 0.000003 0.000001 -0.000001 -0.000001 0.000000 -0.000004 0.000001 0.000002 -0.000000 0.000000 -0.000000 -2.482858 -1.159326 10.995520 -113.001020 -0.628355 -4.577231 127.520711 -0.711599 7.201275 -0.000002 0.000000 0.000000 -0.000004 0.000001 -0.000004 0.000000 0.000002 0.000001 -0.038000 -0.085200 0.016200 0.000001 -0.000002 0.000002 -0.000000 0.000000 -0.000000 -2.473330 -1.157365 12.229897 -94.478735 -1.128264 -19.898730 121.289092 -4.069466 45.877230 0.000002 0.000001 0.000000 -0.000000 0.000001 0.000001 0.000005 0.000000 -0.000000 0.038000 -0.085200 0.016200 0.000003 -0.000002 0.000001 
-0.029031 0.214918 -0.034084 -45.405356 43.122406 79.286735 0.000000 -0.000002 0.000002 -0.000005 -0.000005 0.000000 0.000002 0.000000 -0.000002 -0.000000 0.000002 0.000001 0.000924 0.155147 0.009274 -13.673887 0.027059 -25.316976 0.019937 0.078966 0.057518 12.439018 -1.412778 22.496529 0.177024 -0.020465 -0.095062 -24.427316 10.694469 -51.374989 -222.146821 178.383641 111.332732 -0.000001 0.000004 0.000002 0.021770 -0.038291 0.012954 0.000001 -0.000000 -0.000004 -0.000001 -0.000003 0.000006 0.000002 -0.000003 0.000005 -0.000002 0.000001 -0.000000 -0.009090 -0.002348 -0.024223 0.000001 -0.000001 0.000003 -0.000001 -0.000002 -0.000002 0.000001 0.000001 0.000001 0.032823 -0.025104 0.012281 0.000001 -0.000000 -0.000001 0.000001 -0.000001 -0.000007 -0.000003 -0.000001 0.000005 0.000000 -0.000003 0.000003 0.039230 -0.011402 0.008390 0.000002 -0.000001 0.000001 -0.000002 0.000002 0.000001 0.000001 0.000002 -0.000002 0.000003 -0.000003 0.000005 0.043417 0.002450 0.002889 0.000000 -0.000000 -0.000005 -0.000004 -0.000006 -0.000002 -0.000002 -0.000000 -0.000001 0.000002 -0.000003 -0.000001 -0.016662 0.078956 0.057696 21.174864 -6.540947 -21.488444 -0.176972 -0.020537 -0.095144 -27.482226 -21.327617 78.520538 -4.643979 7.580163 58.669023 0.000003 -0.000001 0.000001 -0.021773 -0.038278 0.012988 -0.000004 0.000001 -0.000005 -0.000001 0.000001 -0.000003 -0.000000 0.000001 -0.000001 0.000002 0.000000 0.000002 0.009114 -0.002381 -0.024211 -0.000001 -0.000001 -0.000003 0.000000 -0.000001 0.000002 -0.000002 0.000001 -0.000011 -0.032828 -0.025095 0.012286 -0.000002 0.000001 -0.000001 -0.000001 0.000003 0.000002 0.000003 -0.000003 0.000004 -0.000001 0.000006 -0.000005 -0.039192 -0.011488 0.008390 -0.000004 0.000004 -0.000000 -0.000002 -0.000000 0.000002 -0.000002 -0.000001 -0.000002 -0.000006 0.000000 -0.000006 -0.043421 0.002443 0.002844 -0.000004 0.000003 0.000000 -0.000002 0.000000 0.000001 -0.000003 -0.000005 -0.000003 -0.000000 0.000000 -0.000004 0.000000 0.000000 -0.000000 -2.524408 -1.031982 9.638123 -110.825249 -0.558562 -3.582494 126.519556 -0.585904 5.924476 0.000000 -0.000000 0.000000 0.000001 -0.000002 0.000002 0.000002 -0.000002 0.000002 -0.038000 -0.085200 0.016200 -0.000001 -0.000001 -0.000003 0.000000 0.000000 -0.000000 -2.509640 -1.029315 10.872573 -94.560533 -0.982142 -17.894367 122.100970 -3.780713 41.817881 -0.000002 0.000000 0.000000 0.000001 0.000000 -0.000000 0.000002 0.000001 -0.000000 0.038000 -0.085200 0.016200 -0.000003 -0.000000 0.000001 
-0.028142 0.211551 -0.032279 -51.708719 42.255365 83.868029 -0.000002 -0.000001 0.000000 -0.000004 0.000002 -0.000001 -0.000000 -0.000002 0.000001 -0.000001 -0.000003 0.000003 0.000924 0.155148 0.009274 -9.358659 0.014755 -23.303487 0.019937 0.078966 0.057518 10.045035 -2.219571 22.573898 0.177024 -0.020465 -0.095062 -25.278571 10.871820 -51.645799 -222.101359 174.558994 105.111980 -0.000002 -0.000000 -0.000002 0.021770 -0.038291 0.012954 0.000002 0.000002 -0.000004 0.000001 -0.000001 0.000001 0.000001 0.000001 0.000003 0.000003 0.000004 0.000002 -0.009090 -0.002348 -0.024224 0.000003 -0.000002 -0.000001 -0.000000 0.000001 0.000005 -0.000000 -0.000001 -0.000001 0.032823 -0.025104 0.012281 0.000000 -0.000000 0.000004 0.000000 0.000002 -0.000007 -0.000003 -0.000003 -0.000002 0.000001 -0.000001 0.000003 0.039230 -0.011402 0.008390 -0.000000 0.000000 0.000008 0.000003 -0.000003 0.000003 0.000002 0.000003 0.000010 0.000000 -0.000004 0.000003 0.043417 0.002450 0.002889 -0.000001 0.000002 -0.000002 -0.000005 -0.000001 -0.000000 -0.000001 -0.000000 -0.000001 0.000006 -0.000003 0.000001 -0.016662 0.078957 0.057696 17.461274 -6.635329 -21.526041 -0.176972 -0.020537 -0.095144 -25.321069 -19.918997 77.267102 -6.508676 8.090093 64.941363 -0.000001 0.000005 0.000006 -0.021773 -0.038278 0.012988 0.000001 0.000001 0.000002 -0.000004 0.000003 0.000002 0.000002 -0.000000 -0.000001 0.000001 0.000000 0.000003 0.009114 -0.002381 -0.024211 -0.000000 -0.000001 -0.000001 0.000001 -0.000001 -0.000001 0.000001 -0.000001 -0.000003 -0.032828 -0.025095 0.012286 0.000004 0.000000 0.000001 -0.000001 0.000001 -0.000003 0.000001 -0.000003 0.000001 -0.000000 0.000000 -0.000000 -0.039192 -0.011488 0.008390 0.000002 0.000001 0.000005 0.000000 0.000002 -0.000003 0.000001 0.000002 -0.000000 -0.000001 -0.000001 -0.000000 -0.043421 0.002443 0.002845 -0.000002 0.000001 0.000002 -0.000003 0.000000 0.000001 0.000003 -0.000000 0.000004 0.000000 0.000001 0.000001 0.000000 0.000000 -0.000000 -2.572914 -1.039152 9.621561 -107.453212 -0.588654 -3.904639 123.343736 -0.489144 4.943794 -0.000003 0.000003 -0.000001 -0.000002 -0.000000 0.000001 0.000003 -0.000000 0.000000 -0.038000 -0.085200 0.016200 -0.000003 0.000002 -0.000004 0.000000 0.000000 0.000000 -2.557849 -1.036433 10.856020 -98.906979 -0.886236 -16.478492 113.175859 -3.796137 42.027452 0.000000 -0.000001 0.000000 -0.000005 0.000002 0.000002 0.000002 -0.000001 -0.000000 0.038000 -0.085200 0.016200 0.000000 0.000001 -0.000000 
-0.027454 0.210360 -0.032530 -52.714488 40.845836 84.584018 0.000005 0.000002 -0.000001 0.000000 0.000001 0.000000 -0.000002 -0.000003 0.000003 -0.000001 -0.000002 0.000003 0.000924 0.155148 0.009274 -8.365036 0.014295 -21.732041 0.019937 0.078966 0.057518 8.579191 -2.616646 22.521091 0.177025 -0.020465 -0.095062 -24.274788 10.750077 -50.745853 -222.422009 175.690483 107.219087 0.000000 -0.000002 -0.000004 0.021770 -0.038291 0.012954 0.000000 0.000000 -0.000004 -0.000001 -0.000002 0.000001 0.000000 -0.000002 0.000006 0.000002 0.000002 0.000002 -0.009090 -0.002348 -0.024224 0.000001 -0.000001 0.000001 -0.000000 0.000000 0.000001 0.000000 0.000001 -0.000002 0.032823 -0.025104 0.012281 -0.000001 0.000001 0.000002 -0.000002 0.000000 -0.000007 -0.000002 -0.000001 -0.000000 0.000000 0.000002 -0.000003 0.039230 -0.011402 0.008390 0.000000 -0.000000 0.000006 0.000001 0.000003 0.000001 0.000002 0.000001 0.000006 0.000005 -0.000003 0.000005 0.043417 0.002450 0.002889 0.000001 -0.000000 -0.000000 -0.000002 -0.000008 -0.000000 -0.000004 -0.000003 0.000001 0.000002 -0.000006 -0.000002 -0.016662 0.078957 0.057696 16.066171 -6.470925 -21.776655 -0.176972 -0.020537 -0.095144 -26.638938 -19.885239 75.844763 -4.755079 8.128850 62.757089 0.000002 -0.000002 0.000001 -0.021773 -0.038278 0.012988 0.000001 -0.000004 0.000005 0.000001 -0.000001 0.000000 0.000000 -0.000002 -0.000005 0.000002 -0.000002 0.000003 0.009113 -0.002381 -0.024212 0.000002 -0.000002 0.000002 -0.000001 -0.000002 -0.000001 0.000002 -0.000001 -0.000001 -0.032828 -0.025095 0.012286 0.000000 -0.000000 -0.000001 0.000002 0.000002 0.000004 0.000001 -0.000001 -0.000001 0.000001 -0.000002 0.000001 -0.039192 -0.011488 0.008390 0.000001 -0.000001 0.000005 -0.000000 0.000008 -0.000003 0.000005 -0.000004 -0.000000 0.000002 0.000002 -0.000003 -0.043421 0.002443 0.002844 -0.000001 0.000001 0.000002 -0.000003 0.000000 0.000003 0.000003 -0.000006 0.000000 0.000000 0.000006 0.000002 -0.000000 0.000000 -0.000000 -2.577967 -1.050991 9.729975 -108.888173 -0.599821 -4.079781 123.184429 -0.381216 3.851601 0.000000 -0.000001 0.000002 0.000002 -0.000001 -0.000004 0.000000 -0.000000 -0.000000 -0.038000 -0.085200 0.016200 0.000002 -0.000001 0.000001 0.000000 0.000000 -0.000000 -2.563294 -1.048317 10.964429 -99.699896 -0.764272 -14.820004 111.445034 -3.708390 40.841591 0.000000 -0.000000 -0.000001 0.000003 0.000001 -0.000001 0.000005 0.000000 -0.000000 0.038000 -0.085200 0.016200 0.000000 0.000001 -0.000000 
